<?xml version="1.0" encoding="UTF-8"?>
<svg xmlns="http://www.w3.org/2000/svg" xmlns:xlink="http://www.w3.org/1999/xlink" width="2000" height="2000" viewBox="0 0 2000 2000">
<rect x="-200" y="-200" width="2400" height="2400" fill="rgb(100%, 100%, 100%)" fill-opacity="1"/>
<path fill-rule="nonzero" fill="rgb(12.939453%, 12.939453%, 12.939453%)" fill-opacity="1" d="M 859.707031 1590.945312 C 825.050781 1590.945312 785.179688 1561.386719 734.226562 1497.914062 C 654.265625 1398.289062 654.84375 1313.820312 655.414062 1232.128906 C 655.980469 1148.40625 656.578125 1061.824219 572.296875 941.550781 C 487.332031 820.320312 473.820312 683.089844 535.230469 565.070312 C 583.609375 472.089844 670.496094 412.011719 756.582031 412.011719 C 771.972656 412.011719 787.175781 413.960938 801.773438 417.808594 C 817.855469 422.050781 834.046875 431.71875 852.804688 442.921875 C 884.304688 461.730469 920.011719 483.058594 961.015625 483.058594 C 978.789062 483.058594 996.003906 479.070312 1013.640625 470.859375 C 1079.339844 440.300781 1156.761719 409.050781 1232.769531 409.050781 C 1298.609375 409.050781 1355.949219 433 1403.191406 480.238281 C 1509.261719 586.308594 1534.039062 772.46875 1460.828125 913.261719 C 1445.808594 942.128906 1431.878906 964.351562 1419.578125 983.949219 C 1378.589844 1049.3125 1356.011719 1085.320312 1359.691406 1269.597656 C 1361.921875 1381.164062 1328.128906 1483.609375 1269.300781 1543.636719 C 1240.660156 1572.84375 1208.558594 1588.9375 1178.890625 1588.9375 C 1157.410156 1588.9375 1138.488281 1580.753906 1124.179688 1565.253906 C 1103.429688 1542.769531 1094.769531 1507.984375 1098.460938 1461.863281 C 1109.089844 1328.910156 1093.5 1225.777344 1056.75 1185.96875 C 1038.980469 1166.710938 1016.851562 1163.4375 986.28125 1174.03125 C 870.210938 1214.226562 912.777344 1409.746094 913.304688 1411.699219 C 926.734375 1461.394531 932.652344 1532.199219 905.117188 1568.160156 C 893.871094 1582.855469 877.742188 1590.945312 859.707031 1590.945312 Z M 859.707031 1531.148438 L 859.707031 1561.046875 L 859.730469 1531.148438 C 859.714844 1531.148438 859.710938 1531.148438 859.710938 1531.148438 Z M 756.582031 471.808594 C 693.53125 471.808594 625.898438 520.378906 588.273438 592.679688 C 537.519531 690.230469 549.542969 804.890625 621.273438 907.238281 C 716.515625 1043.136719 715.816406 1143.757812 715.207031 1232.550781 C 714.675781 1310.289062 714.207031 1377.4375 780.863281 1460.46875 C 829.851562 1521.5 852.71875 1529.839844 858.328125 1530.960938 C 864.996094 1521.242188 869.675781 1479.488281 855.570312 1427.289062 C 841.425781 1374.882812 818.824219 1168.742188 966.71875 1117.523438 C 1019.96875 1099.09375 1067.28125 1109.210938 1100.691406 1145.394531 C 1167.210938 1217.460938 1165.191406 1377.589844 1158.070312 1466.628906 C 1154.851562 1506.910156 1164.949219 1521.253906 1168.121094 1524.691406 C 1171 1527.804688 1174.21875 1529.136719 1178.890625 1529.136719 C 1191.960938 1529.136719 1209.789062 1518.90625 1226.589844 1501.769531 C 1244.511719 1483.492188 1302.738281 1412.804688 1299.898438 1270.789062 C 1295.859375 1068.667969 1324.921875 1022.324219 1368.910156 952.179688 C 1380.609375 933.53125 1393.871094 912.398438 1407.769531 885.679688 C 1469.449219 767.050781 1449.300781 610.929688 1360.898438 522.519531 C 1324.78125 486.410156 1282.878906 468.859375 1232.769531 468.859375 C 1168.410156 468.859375 1098.640625 497.28125 1038.871094 525.078125 C 1013.511719 536.878906 987.320312 542.859375 961.015625 542.859375 C 903.507812 542.859375 856.480469 514.769531 822.140625 494.261719 C 807.898438 485.761719 794.441406 477.71875 786.53125 475.628906 C 776.902344 473.089844 766.824219 471.808594 756.582031 471.808594 "/>
</svg>
