<!-- <svg xmlns="http://www.w3.org/2000/svg" style='height:100%' viewBox="0 0 1440 320">
    <path fill="#68aec7" fill-opacity="1" d="M0,256L120,261.3C240,267,480,277,720,240C960,203,1200,117,1320,74.7L1440,32L1440,320L1320,320C1200,320,960,320,720,320C480,320,240,320,120,320L0,600Z"></path>
</svg> -->

<svg xmlns="http://www.w3.org/2000/svg" style='height:100%' viewBox="0 0 1440 320">
    <path fill="#68aec7" fill-opacity="1" d="M0,180L120,181.3C240,400,600,295,910,180C1060,123,1200,37,1320,14.7L1440,0L1440,320L1320,320C1200,320,960,320,720,320C480,320,240,320,120,320L0,320Z"></path>
</svg>
